# xmcd
#
# Track frame offsets:
#  150
#  12012
#  25785
#  35840
#  47487
#  59460
#  71482
#  81267
#  91690
#  102192
#  115975
#  127415
#
# Disc length: 1856 seconds
#
# Revision: 0
# Processed by: cddbd v1.5.1PL0 Copyright (c) Steve Scherf et al.
# Submitted via: Collectorz.com_Music_Collector 6.9
#
DISCID=9b073e0c
DTITLE=Loretta Lynn - 36 All Time Greatest HIts [CD 2 Of 3)
DYEAR=1998
DGENRE=Country
TTITLE0=The Pill
TTITLE1=When The Tingle Becomes A Chill
TTITLE2=You Ain't Woman Enough (To Take My Man)
TTITLE3=Lyin', Cheatin', Woman Chasin', Honky Tonkin', Whiskey Drinkin' You
TTITLE4=One's On The Way
TTITLE5=Rated X
TTITLE6=Trouble In Paradise
TTITLE7=They Don't Make 'em Like My Daddy Anymore
TTITLE8=You're Looking At Country
TTITLE9=Somebody Somewhere (Don't Know What He's Missin' Tonight)
TTITLE10=Love Is The Foundation
TTITLE11=Wings Upon Your Horns
EXTD=
EXTT0=
EXTT1=
EXTT2=
EXTT3=
EXTT4=
EXTT5=
EXTT6=
EXTT7=
EXTT8=
EXTT9=
EXTT10=
EXTT11=
PLAYORDER=
